<svg width="60" height="60" viewBox="0 0 60 60" fill="none" xmlns="http://www.w3.org/2000/svg">
  <rect width="60" height="60" fill="#F3F4F6"/>
  <path d="M30 20C25.5817 20 22 23.5817 22 28C22 32.4183 25.5817 36 30 36C34.4183 36 38 32.4183 38 28C38 23.5817 34.4183 20 30 20ZM30 34C26.6863 34 24 31.3137 24 28C24 24.6863 26.6863 22 30 22C33.3137 22 36 24.6863 36 28C36 31.3137 33.3137 34 30 34Z" fill="#9CA3AF"/>
  <path d="M30 12C20.0589 12 12 20.0589 12 30C12 39.9411 20.0589 48 30 48C39.9411 48 48 39.9411 48 30C48 20.0589 39.9411 12 30 12ZM30 46C21.1634 46 14 38.8366 14 30C14 21.1634 21.1634 14 30 14C38.8366 14 46 21.1634 46 30C46 38.8366 38.8366 46 30 46Z" fill="#9CA3AF"/>
</svg> 